<svg width="25" height="21" viewBox="0 0 25 21" fill="none" xmlns="http://www.w3.org/2000/svg">
<path fill-rule="evenodd" clip-rule="evenodd" d="M0 19.3182C0 19.0168 0.119724 18.7278 0.332833 18.5147C0.545943 18.3015 0.834981 18.1818 1.13636 18.1818H23.8636C24.165 18.1818 24.4541 18.3015 24.6672 18.5147C24.8803 18.7278 25 19.0168 25 19.3182C25 19.6196 24.8803 19.9086 24.6672 20.1217C24.4541 20.3348 24.165 20.4545 23.8636 20.4545H1.13636C0.834981 20.4545 0.545943 20.3348 0.332833 20.1217C0.119724 19.9086 0 19.6196 0 19.3182ZM0 10.2273C0 9.92589 0.119724 9.63685 0.332833 9.42374C0.545943 9.21063 0.834981 9.09091 1.13636 9.09091H23.8636C24.165 9.09091 24.4541 9.21063 24.6672 9.42374C24.8803 9.63685 25 9.92589 25 10.2273C25 10.5287 24.8803 10.8177 24.6672 11.0308C24.4541 11.2439 24.165 11.3636 23.8636 11.3636H1.13636C0.834981 11.3636 0.545943 11.2439 0.332833 11.0308C0.119724 10.8177 0 10.5287 0 10.2273ZM0 1.13636C0 0.834981 0.119724 0.545943 0.332833 0.332833C0.545943 0.119724 0.834981 0 1.13636 0H23.8636C24.165 0 24.4541 0.119724 24.6672 0.332833C24.8803 0.545943 25 0.834981 25 1.13636C25 1.43775 24.8803 1.72678 24.6672 1.93989C24.4541 2.153 24.165 2.27273 23.8636 2.27273H1.13636C0.834981 2.27273 0.545943 2.153 0.332833 1.93989C0.119724 1.72678 0 1.43775 0 1.13636Z" fill="black"/>
</svg>
