<svg width="20" height="16" viewBox="0 0 20 16" fill="none" xmlns="http://www.w3.org/2000/svg">
<path d="M13.4875 14.0825L11.47 12.0637C10.6898 12.3427 9.84643 12.3943 9.03803 12.2127C8.22962 12.031 7.48941 11.6236 6.90352 11.0377C6.31764 10.4518 5.91018 9.71161 5.72854 8.9032C5.5469 8.09479 5.59856 7.25142 5.8775 6.47122L3.3025 3.89622C1.1725 5.78997 0 7.94247 0 7.94247C0 7.94247 3.75 14.8175 10 14.8175C11.2005 14.8133 12.3874 14.5632 13.4875 14.0825V14.0825ZM6.5125 1.80247C7.61257 1.32176 8.79949 1.07161 10 1.06747C16.25 1.06747 20 7.94247 20 7.94247C20 7.94247 18.8263 10.0937 16.6988 11.99L14.1212 9.41247C14.4002 8.63228 14.4519 7.78891 14.2702 6.9805C14.0886 6.17209 13.6811 5.43188 13.0952 4.846C12.5093 4.26012 11.7691 3.85265 10.9607 3.67101C10.1523 3.48937 9.30895 3.54103 8.52875 3.81997L6.5125 1.80372V1.80247Z" fill="black"/>
<path d="M6.90627 7.5C6.83751 7.98039 6.88158 8.47019 7.03497 8.93059C7.18837 9.39099 7.44689 9.80934 7.79003 10.1525C8.13318 10.4956 8.55153 10.7541 9.01193 10.9075C9.47233 11.0609 9.96213 11.105 10.4425 11.0363L6.90502 7.5H6.90627ZM13.0938 8.385L9.55752 4.8475C10.0379 4.77874 10.5277 4.82281 10.9881 4.9762C11.4485 5.1296 11.8669 5.38812 12.21 5.73126C12.5532 6.07441 12.8117 6.49276 12.9651 6.95316C13.1185 7.41356 13.1625 7.90336 13.0938 8.38375V8.385ZM17.0575 15.885L2.05752 0.885L2.94252 0L17.9425 15L17.0575 15.885Z" fill="black"/>
</svg>
