<svg width="40" height="40" viewBox="0 0 40 40" fill="none" xmlns="http://www.w3.org/2000/svg">
<path d="M17.5999 27.5125C17.5999 27.1842 17.6645 26.8591 17.7902 26.5558C17.9158 26.2525 18.1 25.9769 18.3321 25.7447C18.5643 25.5126 18.8399 25.3284 19.1432 25.2028C19.4465 25.0772 19.7716 25.0125 20.0999 25.0125C20.4282 25.0125 20.7533 25.0772 21.0566 25.2028C21.3599 25.3284 21.6355 25.5126 21.8677 25.7447C22.0998 25.9769 22.2839 26.2525 22.4096 26.5558C22.5352 26.8591 22.5999 27.1842 22.5999 27.5125C22.5999 28.1755 22.3365 28.8114 21.8677 29.2803C21.3988 29.7491 20.7629 30.0125 20.0999 30.0125C19.4368 30.0125 18.801 29.7491 18.3321 29.2803C17.8633 28.8114 17.5999 28.1755 17.5999 27.5125V27.5125ZM17.8449 12.5C17.8116 12.1846 17.845 11.8657 17.9429 11.5641C18.0408 11.2624 18.201 10.9847 18.4132 10.749C18.6253 10.5132 18.8847 10.3247 19.1744 10.1957C19.4641 10.0667 19.7777 10 20.0949 10C20.412 10 20.7256 10.0667 21.0154 10.1957C21.3051 10.3247 21.5644 10.5132 21.7766 10.749C21.9887 10.9847 22.149 11.2624 22.2469 11.5641C22.3448 11.8657 22.3782 12.1846 22.3449 12.5L21.4699 21.2675C21.4405 21.6119 21.2829 21.9328 21.0283 22.1666C20.7737 22.4004 20.4406 22.5301 20.0949 22.5301C19.7492 22.5301 19.4161 22.4004 19.1615 22.1666C18.9069 21.9328 18.7493 21.6119 18.7199 21.2675L17.8449 12.5Z" fill="black"/>
<path d="M20 37.5C15.3587 37.5 10.9075 35.6563 7.62563 32.3744C4.34374 29.0925 2.5 24.6413 2.5 20C2.5 15.3587 4.34374 10.9075 7.62563 7.62563C10.9075 4.34374 15.3587 2.5 20 2.5C24.6413 2.5 29.0925 4.34374 32.3744 7.62563C35.6563 10.9075 37.5 15.3587 37.5 20C37.5 24.6413 35.6563 29.0925 32.3744 32.3744C29.0925 35.6563 24.6413 37.5 20 37.5ZM20 40C25.3043 40 30.3914 37.8929 34.1421 34.1421C37.8929 30.3914 40 25.3043 40 20C40 14.6957 37.8929 9.60859 34.1421 5.85786C30.3914 2.10714 25.3043 0 20 0C14.6957 0 9.60859 2.10714 5.85786 5.85786C2.10714 9.60859 0 14.6957 0 20C0 25.3043 2.10714 30.3914 5.85786 34.1421C9.60859 37.8929 14.6957 40 20 40V40Z" fill="black"/>
</svg>
