<svg width="6" height="10" viewBox="0 0 6 10" fill="none" xmlns="http://www.w3.org/2000/svg">
<path fill-rule="evenodd" clip-rule="evenodd" d="M5.27239 0.112982C5.23667 0.0771683 5.19423 0.0487541 5.14751 0.0293668C5.10079 0.00997949 5.0507 0 5.00012 0C4.94953 0 4.89945 0.00997949 4.85273 0.0293668C4.806 0.0487541 4.76357 0.0771683 4.72784 0.112982L0.112999 4.72783C0.0771856 4.76355 0.0487719 4.80599 0.0293846 4.85271C0.00999689 4.89943 1.7643e-05 4.94952 1.7643e-05 5.0001C1.7643e-05 5.05068 0.00999689 5.10077 0.0293846 5.14749C0.0487719 5.19422 0.0771856 5.23665 0.112999 5.27238L4.72784 9.88722C4.80005 9.95943 4.898 10 5.00012 10C5.10224 10 5.20018 9.95943 5.27239 9.88722C5.34461 9.81501 5.38517 9.71707 5.38517 9.61494C5.38517 9.51282 5.34461 9.41488 5.27239 9.34267L0.929057 5.0001L5.27239 0.657534C5.30821 0.62181 5.33662 0.579373 5.35601 0.532651C5.3754 0.485929 5.38538 0.435842 5.38538 0.385258C5.38538 0.334673 5.3754 0.284586 5.35601 0.237865C5.33662 0.191143 5.30821 0.148705 5.27239 0.112982Z" fill="black"/>
</svg>
