<svg width="6" height="10" viewBox="0 0 6 10" fill="none" xmlns="http://www.w3.org/2000/svg">
<path fill-rule="evenodd" clip-rule="evenodd" d="M0.113089 0.112982C0.148812 0.0771683 0.19125 0.0487541 0.237971 0.0293668C0.284693 0.00997949 0.33478 0 0.385364 0C0.435949 0 0.486036 0.00997949 0.532758 0.0293668C0.579479 0.0487541 0.621917 0.0771683 0.65764 0.112982L5.27248 4.72783C5.3083 4.76355 5.33671 4.80599 5.3561 4.85271C5.37549 4.89943 5.38547 4.94952 5.38547 5.0001C5.38547 5.05068 5.37549 5.10077 5.3561 5.14749C5.33671 5.19422 5.3083 5.23665 5.27248 5.27238L0.65764 9.88722C0.585428 9.95943 0.487488 10 0.385364 10C0.283241 10 0.185301 9.95943 0.113089 9.88722C0.0408765 9.81501 0.00030816 9.71707 0.00030816 9.61494C0.00030816 9.51282 0.0408765 9.41488 0.113089 9.34267L4.45643 5.0001L0.113089 0.657534C0.0772749 0.62181 0.0488605 0.579373 0.0294732 0.532651C0.0100859 0.485929 0.000106812 0.435842 0.000106812 0.385258C0.000106812 0.334673 0.0100859 0.284586 0.0294732 0.237865C0.0488605 0.191143 0.0772749 0.148705 0.113089 0.112982Z" fill="black"/>
</svg>
